<svg id="Layer_1" data-name="Layer 1" xmlns="http://www.w3.org/2000/svg" viewBox="0 0 1000 1000"><defs><style>.cls-1{fill:none;stroke:#000;stroke-miterlimit:10;stroke-width:25px;}</style></defs><path class="cls-1" d="M986,935.28a52.81,52.81,0,0,1-52.4,52.92l-72.54.36-32.53.15-44.44.2c-15.38-13.6-22.31-30.26-25.33-48.34v0c-2.62-15.77-2.25-32.61-1.88-49.41,2.37-106.55,26.59-211.35,28.66-317.94,0-2.92.66-10.34.63-19-.08-27-6.35-66.12-55.18-20.38a1054.07,1054.07,0,0,0-98,105.81C572,714.89,520.12,797,467.72,878.41c-11.76,18.3-36.38,25.1-48.49,20.58-13-4.8-20-14.87-23.07-27.94v0c-6.67-28.15,4.64-70.26,12.93-104,14.84-60.25,36.12-118.57,57.58-176.72,20-54.07,40.2-108.09,55.78-163.69,4.54-16.23,24.62-88.11,26.64-128.32.76-14.91-1-25.47-6.89-27.21-7.24-2.06-33.93,17.07-39.5,21.16-11,8-20.84,17.51-30.72,26.77q-28.11,26.32-54.11,54.63a1327,1327,0,0,0-96.68,119.1C211.57,644.06,128,811.66,32,971.57a52.34,52.34,0,0,1-9-17.86,51.74,51.74,0,0,1-2-14l-.44-101.33-.39-86.67L19.53,625.1,17.08,80A52.76,52.76,0,0,1,69.47,27.14l859.7-3.95a52.8,52.8,0,0,1,52.92,52.39Z"/><path d="M827.6,893.28c1.74-25.45,4.52-50.81,7.51-76.09,6.24-52.93,14-105.72,17.66-158.91,4.2-61.61,26.74-216.61-60.47-200.81-76.29,13.86-250.5,245-321.69,353.75,2.72-8.43,5.13-15.49,6.11-19.05,7.91-28.87,17.23-57.35,27.14-85.61,20.54-58.68,44-116.39,64.1-175.19,19.19-56.31,35.79-114.06,42.76-173.13,5.35-45.5-.45-101.37-50-111.9C461.42,225.14,215.11,571.7,47.46,864.63l11-26.47q43-103.41,86-206.82c56.19-135,85.83-232.28,153.32-362.36,26.52-51.34-24.81-86.19-54.45-38.88-37.72,71.4-45.71,103.66-76.69,178q-49.87,120.2-99.89,240.22Q42.38,707,18,765.71l.4,86.67.41,93.33,0,8a51.6,51.6,0,0,0,11.21,31.86C127.67,825.66,212.7,658.06,324.19,506.79a1333.17,1333.17,0,0,1,98.34-119.1q26.52-28.24,55-54.63c10.05-9.26,20.09-18.79,31.24-26.77,5.67-4.09,32.82-23.22,40.18-21.16,2.2.64,3.82,2.44,5,5.21,10.47,25.26-19.34,130.27-25.06,150.32-15.85,55.6-36.42,109.62-56.73,163.69-21.83,58.15-43.48,116.47-58.57,176.72-6.45,25.74-14.68,56.38-15.19,82v0c-.45,23.48,5.6,42.69,25.5,49.94,12.32,4.52,37.36-2.28,49.32-20.58,53.3-81.37,106-163.52,168.06-238.82A1061.55,1061.55,0,0,1,741,547.78c36.63-33.73,49.71-21.29,54.09-1.62,3.47,15.59,1.48,35.73,1.4,41-2.11,106.59-26.74,211.39-29.15,317.94-.21,9.19-.41,18.39-.13,27.41v0c3.08,18.08,10.12,34.74,25.77,48.34l45.2-.2c-7.37-7.08-12.85-20.06-12.55-45.87C825.77,921,826.66,907.15,827.6,893.28Z"/><path d="M901.14,295q-9.4,1.82-18.34,3.62t-17.38,3.62a164.81,164.81,0,0,1,1.21,36.32,170.16,170.16,0,0,1-2.3,17.54q-5.51,30.38-21.76,61a22.69,22.69,0,0,0-2.54,4.11c-1.55,6.62,1.86-6-5.82-28a201.51,201.51,0,0,0-13.69-36.56q-4.23-8.7-9.41-17.4c-17.67-29.65-43.76-59.32-79.35-89.12q21.27-3.63,44.59-7.22a428.73,428.73,0,0,0-40-37.41q-10.38-8.62-21.92-17.26c-26.92-20.14-58.65-40.37-95.79-60.74q23.2-2.06,47.2-4c39.84-3.23,82.63-1.62,117.43,3.56,7,1,13.6,2.21,19.84,3.52,5.66,1.19,11.8.88,17.56,1.92A113.93,113.93,0,0,1,837,136.56,100.24,100.24,0,0,1,864.39,151c15.76,11.76,27.55,28.28,34.57,46.75a131.24,131.24,0,0,1,7.46,59.44c-.65,6.5-1.57,13-2.56,19.43C903.6,278.28,901.88,294.81,901.14,295Z"/></svg>